<svg xmlns="http://www.w3.org/2000/svg" viewBox="0 0 800 500" width="800" height="500" role="img">
  <defs>
    <linearGradient id="g" x1="0" y1="0" x2="1" y2="1"><stop offset="0" stop-color="#831843"/><stop offset="1" stop-color="#EC4899"/></linearGradient>
    <radialGradient id="s" cx="0.15" cy="0" r="0.9"><stop offset="0" stop-color="#fff" stop-opacity="0.20"/><stop offset="1" stop-color="#fff" stop-opacity="0"/></radialGradient>
  </defs>
  <rect width="800" height="500" fill="url(#g)"/>
  <line x1="400" y1="250" x2="400" y2="124" stroke="#fff" stroke-width="1.5" opacity="0.18"/><line x1="400" y1="250" x2="538" y2="113" stroke="#fff" stroke-width="1.5" opacity="0.18"/><line x1="400" y1="250" x2="566" y2="211" stroke="#fff" stroke-width="1.5" opacity="0.18"/><line x1="400" y1="250" x2="623" y2="302" stroke="#fff" stroke-width="1.5" opacity="0.18"/><line x1="400" y1="250" x2="503" y2="352" stroke="#fff" stroke-width="1.5" opacity="0.18"/><line x1="400" y1="250" x2="400" y2="419" stroke="#fff" stroke-width="1.5" opacity="0.18"/><line x1="400" y1="250" x2="297" y2="352" stroke="#fff" stroke-width="1.5" opacity="0.18"/><line x1="400" y1="250" x2="177" y2="302" stroke="#fff" stroke-width="1.5" opacity="0.18"/><line x1="400" y1="250" x2="234" y2="211" stroke="#fff" stroke-width="1.5" opacity="0.18"/><line x1="400" y1="250" x2="262" y2="113" stroke="#fff" stroke-width="1.5" opacity="0.18"/><circle cx="400" cy="250" r="62" fill="#fff" opacity="0.38"/><circle cx="400" cy="250" r="86" fill="none" stroke="#fff" stroke-width="2" opacity="0.24"/><circle cx="400" cy="124" r="34" fill="#fff" opacity="0.10"/><circle cx="400" cy="124" r="26" fill="#fff" opacity="0.34"/><circle cx="538" cy="113" r="26" fill="#fff" opacity="0.10"/><circle cx="538" cy="113" r="18" fill="#fff" opacity="0.34"/><circle cx="566" cy="211" r="26" fill="#fff" opacity="0.10"/><circle cx="566" cy="211" r="18" fill="#fff" opacity="0.34"/><circle cx="623" cy="302" r="34" fill="#fff" opacity="0.10"/><circle cx="623" cy="302" r="26" fill="#fff" opacity="0.34"/><circle cx="503" cy="352" r="26" fill="#fff" opacity="0.10"/><circle cx="503" cy="352" r="18" fill="#fff" opacity="0.34"/><circle cx="400" cy="419" r="26" fill="#fff" opacity="0.10"/><circle cx="400" cy="419" r="18" fill="#fff" opacity="0.34"/><circle cx="297" cy="352" r="34" fill="#fff" opacity="0.10"/><circle cx="297" cy="352" r="26" fill="#fff" opacity="0.34"/><circle cx="177" cy="302" r="26" fill="#fff" opacity="0.10"/><circle cx="177" cy="302" r="18" fill="#fff" opacity="0.34"/><circle cx="234" cy="211" r="26" fill="#fff" opacity="0.10"/><circle cx="234" cy="211" r="18" fill="#fff" opacity="0.34"/><circle cx="262" cy="113" r="34" fill="#fff" opacity="0.10"/><circle cx="262" cy="113" r="26" fill="#fff" opacity="0.34"/>
  <rect width="800" height="500" fill="url(#s)"/>
</svg>